# xmcd
# 
# Track frame offsets:
#     150
#     18554
#     37137
#     55462
#     67824
#     81144
#     94522
#     115868
#     128797
#     141034
#     156248
#     175529
# 
# Disc length: 2710
# 
# Revision: 5
# Processed by: cddbd v1.5.2PL0 Copyright (c) Steve Scherf et al.
# Submitted via: fre:ac v1.0.31
# 
DISCID=990a940c
DTITLE=North Mississippi Allstars - Polaris
DYEAR=2003
DGENRE=Rock/Pop
TTITLE0=Eyes
TTITLE1=Meet Me in the City
TTITLE2=Conan
TTITLE3=All Along
TTITLE4=Otay
TTITLE5=Kids These Daze
TTITLE6=One to Grow On
TTITLE7=Never in All My Days
TTITLE8=Bad Bad Pain
TTITLE9=Polaris
TTITLE10=Time For The Sun To Rise
TTITLE11=Be So Glad
EXTD=YEAR: 2003
EXTT0=
EXTT1=
EXTT2=
EXTT3=
EXTT4=
EXTT5=
EXTT6=
EXTT7=
EXTT8=
EXTT9=
EXTT10=
EXTT11=
PLAYORDER=
